<?xml version="1.0" encoding="iso-8859-1"?>
<!-- Generator: Adobe Illustrator 19.0.0, SVG Export Plug-In . SVG Version: 6.00 Build 0)  -->
<svg version="1.1" id="Layer_1" xmlns="http://www.w3.org/2000/svg" xmlns:xlink="http://www.w3.org/1999/xlink" x="0px" y="0px"
	 viewBox="0 0 512 512" style="enable-background:new 0 0 512 512;" xml:space="preserve">
<path style="fill:#F7729B;" d="M255.861,375.354c85.642,0,155.068-69.426,155.068-155.068S341.502,35.624,255.861,96.02
	c-85.642-60.396-155.068,38.626-155.068,124.267S170.219,375.354,255.861,375.354z"/>
<path style="fill:#E55C8D;" d="M255.859,375.354c-58.67,0-106.233-69.426-106.233-155.068c0-63.624,26.254-134.612,63.807-142.155
	c-65.017-8.886-112.642,71.223-112.642,142.155C100.792,305.928,170.218,375.354,255.859,375.354"/>
<path style="fill:#FCD559;" d="M282.611,373.056v102.341c0,14.772-11.974,26.757-26.746,26.757
	c-14.772,0-26.746-11.985-26.746-26.757V373.056c8.695,1.511,17.626,2.294,26.746,2.294S273.915,374.567,282.611,373.056z"/>
<path style="fill:#2FCCC4;" d="M376.939,317.169c-6.099,7.61-12.892,14.638-20.3,20.961c-20.67,17.704-46.073,30.07-74.028,34.927
	c-8.695,1.511-17.626,2.294-26.746,2.294c-0.492,0-0.985,0-1.477-0.011c-8.606-0.078-17.044-0.851-25.269-2.283
	c-27.966-4.868-53.358-17.212-74.039-34.927c-7.408-6.334-14.201-13.351-20.3-20.949l0.011-0.011
	c14.336-1.746,21.397-10.363,29.656-17.849c6.905-6.256,14.649-11.739,28.179-11.739c31.625,0,31.625,29.913,63.24,29.913
	c31.625,0,31.625-29.913,63.24-29.913c29.712,0,31.514,26.388,57.823,29.589L376.939,317.169L376.939,317.169z"/>
<path style="fill:#E2B844;" d="M282.611,373.056V402.6c-8.695,1.511-17.626,2.294-26.746,2.294s-18.051-0.783-26.746-2.294v-29.544
	c8.695,1.511,17.626,2.294,26.746,2.294S273.915,374.567,282.611,373.056z"/>
<path style="fill:#1DB2A7;" d="M254.387,375.339c-8.606-0.078-17.044-0.851-25.269-2.283c-27.966-4.868-53.358-17.212-74.039-34.927
	c-7.408-6.334-14.201-13.351-20.3-20.949l0.011-0.011c14.336-1.746,21.397-10.363,29.656-17.849
	C182.721,344.262,216.103,374.578,254.387,375.339z"/>
<path d="M409.048,159.97c-1.511-4.381-6.285-6.712-10.669-5.2c-4.382,1.511-6.711,6.287-5.2,10.671
	c6.212,18.025,9.495,37.108,9.495,55.183c0,32.028-10.035,62.218-29.063,87.643c-6.88-1.971-11.445-6.271-16.967-11.494
	c-8.127-7.686-18.241-17.252-37.399-17.252c-19.146,0-29.257,9.565-37.381,17.251c-7.479,7.075-13.385,12.663-25.858,12.663
	c-12.466,0-18.37-5.586-25.845-12.659c-8.127-7.687-18.24-17.254-37.394-17.254c-16.38,0-26.178,6.91-34.324,14.378
	c-3.418,3.132-3.649,8.441-0.517,11.859c3.133,3.417,8.442,3.648,11.859,0.516c5.949-5.452,11.784-9.965,22.982-9.965
	c12.473,0,18.38,5.588,25.858,12.662c8.123,7.686,18.234,17.251,37.381,17.251c19.154,0,29.268-9.567,37.394-17.254
	c7.476-7.073,13.38-12.659,25.845-12.659c12.477,0,18.384,5.588,25.863,12.66c4.781,4.521,9.981,9.422,17.062,12.843
	c-21.625,22.698-49.907,37.928-80.855,43.31c-16.578,2.881-34.042,2.881-50.618,0c-35.116-6.106-66.804-24.877-89.227-52.855
	c-21.028-26.242-32.144-57.931-32.144-91.642c0-53.317,27.689-107.88,64.407-126.918c24.459-12.68,50.511-9.482,77.435,9.502
	c2.901,2.046,6.774,2.045,9.675,0c20.307-14.321,40.35-19.65,59.576-15.837c21.119,4.189,41.196,19.815,56.53,43.999
	c2.482,3.916,7.67,5.076,11.583,2.594c3.916-2.482,5.076-7.668,2.594-11.583c-17.819-28.104-41.769-46.385-67.441-51.477
	c-19.408-3.849-39.124-0.447-58.807,10.092c1.789-17.838,9.116-49.305,37.843-65.265c4.051-2.252,5.511-7.361,3.261-11.412
	c-2.253-4.053-7.361-5.51-11.414-3.261c-36.834,20.463-45.011,59.531-46.665,80.362c-34.622-18.861-63.231-12.295-81.897-2.616
	c-21.537,11.167-40.108,31.503-53.706,58.813c-12.743,25.591-19.76,55.07-19.76,83.008c0,37.032,12.725,73.306,35.831,102.139
	c23.495,29.315,56.131,49.556,92.495,57.526v96.561c0,19.383,15.763,35.151,35.139,35.151c19.376,0,35.139-15.768,35.139-35.151
	v-96.561c36.363-7.97,68.995-28.216,92.484-57.537c23.105-28.819,35.831-65.088,35.831-102.129
	C419.458,200.708,415.859,179.735,409.048,159.97z M256.005,495.213c-10.12,0-18.353-8.239-18.353-18.364v-93.798
	c6.078,0.677,12.218,1.025,18.353,1.025c6.135,0,12.275-0.348,18.353-1.025v93.798C274.359,486.975,266.125,495.213,256.005,495.213
	z"/>
<g>
</g>
<g>
</g>
<g>
</g>
<g>
</g>
<g>
</g>
<g>
</g>
<g>
</g>
<g>
</g>
<g>
</g>
<g>
</g>
<g>
</g>
<g>
</g>
<g>
</g>
<g>
</g>
<g>
</g>
</svg>
